<mxfile host="app.diagrams.net" agent="Mozilla/5.0 (Windows NT 10.0; Win64; x64) AppleWebKit/537.36 (KHTML, like Gecko) Chrome/140.0.0.0 Safari/537.36" version="28.2.4">
  <diagram name="Page-1" id="om-bgXbFcx1in0Yg2o51">
    <mxGraphModel dx="1106" dy="1663" grid="1" gridSize="10" guides="1" tooltips="1" connect="1" arrows="1" fold="1" page="1" pageScale="1" pageWidth="850" pageHeight="1100" math="0" shadow="0">
      <root>
        <mxCell id="0" />
        <mxCell id="1" parent="0" />
        <mxCell id="d4AbT5lrCcELxwsvUbM--4" style="edgeStyle=orthogonalEdgeStyle;rounded=0;orthogonalLoop=1;jettySize=auto;html=1;" edge="1" parent="1" source="d4AbT5lrCcELxwsvUbM--3">
          <mxGeometry relative="1" as="geometry">
            <mxPoint x="540" as="targetPoint" />
          </mxGeometry>
        </mxCell>
        <mxCell id="d4AbT5lrCcELxwsvUbM--19" style="edgeStyle=orthogonalEdgeStyle;rounded=0;orthogonalLoop=1;jettySize=auto;html=1;entryX=0.5;entryY=0;entryDx=0;entryDy=0;" edge="1" parent="1" source="d4AbT5lrCcELxwsvUbM--3">
          <mxGeometry relative="1" as="geometry">
            <mxPoint x="427" y="83" as="targetPoint" />
          </mxGeometry>
        </mxCell>
        <mxCell id="d4AbT5lrCcELxwsvUbM--3" value="Desktop" style="rounded=0;whiteSpace=wrap;html=1;" vertex="1" parent="1">
          <mxGeometry x="365" y="-30" width="120" height="60" as="geometry" />
        </mxCell>
        <mxCell id="d4AbT5lrCcELxwsvUbM--18" style="edgeStyle=orthogonalEdgeStyle;rounded=0;orthogonalLoop=1;jettySize=auto;html=1;entryX=0.5;entryY=0;entryDx=0;entryDy=0;" edge="1" parent="1" source="d4AbT5lrCcELxwsvUbM--10" target="d4AbT5lrCcELxwsvUbM--11">
          <mxGeometry relative="1" as="geometry" />
        </mxCell>
        <mxCell id="d4AbT5lrCcELxwsvUbM--10" value="Text" style="whiteSpace=wrap;html=1;aspect=fixed;" vertex="1" parent="1">
          <mxGeometry x="380" y="200" width="100" height="100" as="geometry" />
        </mxCell>
        <mxCell id="d4AbT5lrCcELxwsvUbM--17" style="edgeStyle=orthogonalEdgeStyle;rounded=0;orthogonalLoop=1;jettySize=auto;html=1;" edge="1" parent="1" source="d4AbT5lrCcELxwsvUbM--11" target="d4AbT5lrCcELxwsvUbM--12">
          <mxGeometry relative="1" as="geometry" />
        </mxCell>
        <mxCell id="d4AbT5lrCcELxwsvUbM--11" value="Relance" style="ellipse;whiteSpace=wrap;html=1;aspect=fixed;" vertex="1" parent="1">
          <mxGeometry x="376" y="349" width="111" height="111" as="geometry" />
        </mxCell>
        <mxCell id="d4AbT5lrCcELxwsvUbM--16" style="edgeStyle=orthogonalEdgeStyle;rounded=0;orthogonalLoop=1;jettySize=auto;html=1;" edge="1" parent="1" source="d4AbT5lrCcELxwsvUbM--12" target="d4AbT5lrCcELxwsvUbM--13">
          <mxGeometry relative="1" as="geometry" />
        </mxCell>
        <mxCell id="d4AbT5lrCcELxwsvUbM--12" value="Display" style="rhombus;whiteSpace=wrap;html=1;" vertex="1" parent="1">
          <mxGeometry x="378" y="512" width="110" height="115" as="geometry" />
        </mxCell>
        <mxCell id="d4AbT5lrCcELxwsvUbM--13" value="opertrate" style="shape=umlActor;verticalLabelPosition=bottom;verticalAlign=top;html=1;outlineConnect=0;" vertex="1" parent="1">
          <mxGeometry x="392" y="680" width="78" height="100" as="geometry" />
        </mxCell>
        <mxCell id="d4AbT5lrCcELxwsvUbM--14" value="&lt;div&gt;&lt;br&gt;&lt;/div&gt;Monitors" style="ellipse;shape=cloud;whiteSpace=wrap;html=1;" vertex="1" parent="1">
          <mxGeometry x="376" y="842" width="120" height="80" as="geometry" />
        </mxCell>
        <mxCell id="d4AbT5lrCcELxwsvUbM--20" style="edgeStyle=orthogonalEdgeStyle;rounded=0;orthogonalLoop=1;jettySize=auto;html=1;entryX=0.44;entryY=-0.03;entryDx=0;entryDy=0;entryPerimeter=0;" edge="1" parent="1" target="d4AbT5lrCcELxwsvUbM--10">
          <mxGeometry relative="1" as="geometry">
            <mxPoint x="427" y="163" as="sourcePoint" />
          </mxGeometry>
        </mxCell>
        <mxCell id="d4AbT5lrCcELxwsvUbM--21" style="edgeStyle=orthogonalEdgeStyle;rounded=0;orthogonalLoop=1;jettySize=auto;html=1;entryX=0.483;entryY=0.125;entryDx=0;entryDy=0;entryPerimeter=0;" edge="1" parent="1" source="d4AbT5lrCcELxwsvUbM--13" target="d4AbT5lrCcELxwsvUbM--14">
          <mxGeometry relative="1" as="geometry" />
        </mxCell>
        <mxCell id="d4AbT5lrCcELxwsvUbM--23" style="edgeStyle=orthogonalEdgeStyle;rounded=0;orthogonalLoop=1;jettySize=auto;html=1;" edge="1" parent="1" source="d4AbT5lrCcELxwsvUbM--22" target="d4AbT5lrCcELxwsvUbM--3">
          <mxGeometry relative="1" as="geometry" />
        </mxCell>
        <mxCell id="d4AbT5lrCcELxwsvUbM--22" value="Plan" style="rounded=0;whiteSpace=wrap;html=1;" vertex="1" parent="1">
          <mxGeometry x="368" y="-160" width="120" height="60" as="geometry" />
        </mxCell>
        <mxCell id="d4AbT5lrCcELxwsvUbM--24" value="Build" style="ellipse;whiteSpace=wrap;html=1;" vertex="1" parent="1">
          <mxGeometry x="365" y="80" width="120" height="80" as="geometry" />
        </mxCell>
      </root>
    </mxGraphModel>
  </diagram>
</mxfile>
